<svg width="394.4" height="394.4" xmlns="http://www.w3.org/2000/svg">

 <g>
  <title>background</title>
  <rect fill="none" id="canvas_background" height="402" width="582" y="-1" x="-1"/>
 </g>
 <g>
  <title>Layer 1</title>
  <path fill="#002a5e" id="svg_2" d="m37.400002,377.399994c-5.223003,0 -10.438002,-1.992004 -14.423002,-5.97699c-7.969999,-7.963013 -7.969999,-20.883026 0,-28.846008l319.599997,-319.601015c7.970001,-7.970001 20.876007,-7.970001 28.846008,0c7.970001,7.962 7.970001,20.881998 0,28.844999l-319.600002,319.601017c-3.985001,3.985992 -9.200001,5.977997 -14.423,5.977997zm356.999992,-78.200989c0,-52.496002 -42.703979,-95.19899 -95.199982,-95.19899s-95.200012,42.702988 -95.200012,95.19899s42.703995,95.200989 95.200012,95.200989s95.199982,-42.704987 95.199982,-95.200989zm-40.798981,0c0,29.996002 -24.404999,54.399994 -54.399994,54.399994s-54.400009,-24.403992 -54.400009,-54.399994c0,-29.993988 24.405014,-54.397995 54.400009,-54.397995s54.399994,24.403976 54.399994,54.397995zm-163.201019,-203.999008c0,-52.495998 -42.703995,-95.199997 -95.199997,-95.199997s-95.199997,42.703999 -95.199997,95.199997s42.703999,95.199997 95.199997,95.199997s95.199997,-42.703995 95.199997,-95.199997zm-40.799988,0c0,29.995003 -24.404999,54.400009 -54.400009,54.400009s-54.399998,-24.405006 -54.399998,-54.400009s24.405003,-54.399998 54.399998,-54.399998s54.400009,24.406002 54.400009,54.399998z"/>
 </g>
</svg>